<svg width="119" height="76" viewBox="0 0 119 76" fill="none" xmlns="http://www.w3.org/2000/svg">
<g clip-path="url(#clip0_6585_22840)">
<path d="M54.1293 24.4492C54.1293 24.4492 46.8631 24.7107 44.625 32.9272" stroke="black" stroke-width="1.76" stroke-miterlimit="10"/>
<path d="M82.5835 1.92188L73.4806 11.0435C73.4806 11.0435 71.0318 14.1511 65.8831 12.8236C60.7345 11.496 51.3306 17.1078 55.0139 26.6417C55.0139 26.6417 57.9244 35.1599 68.7836 30.7852" stroke="black" stroke-width="1.76" stroke-linecap="round" stroke-linejoin="round"/>
<path d="M108.555 1.34766L86.1843 23.7645C86.1843 23.7645 83.083 26.2184 84.4078 31.3776C85.7326 36.5368 80.1324 45.9601 70.618 42.2692C70.618 42.2692 64.2751 40.0969 65.359 32.5039L65.5698 31.5988" stroke="black" stroke-width="1.76" stroke-linecap="round" stroke-linejoin="round"/>
<path d="M35.9844 74.0796L45.0873 64.958C45.0873 64.958 47.5361 61.8504 52.6847 63.1779C57.8333 64.5054 67.2373 58.8936 63.554 49.3597C63.554 49.3597 60.6435 40.8415 49.7842 45.2163" stroke="black" stroke-width="1.76" stroke-linecap="round" stroke-linejoin="round"/>
<path d="M11.4844 73.1739L32.3899 52.2254C32.3899 52.2254 35.4911 49.7715 34.1663 44.6123C32.8416 39.4531 38.4418 30.0298 47.9562 33.7207C47.9562 33.7207 54.2991 35.893 53.2152 43.4859L53.0044 44.391" stroke="black" stroke-width="1.76" stroke-linecap="round" stroke-linejoin="round"/>
<path d="M72.8278 43.1738C72.8278 43.1738 72.5668 50.455 64.3672 52.6977" stroke="black" stroke-width="1.76" stroke-miterlimit="10"/>
<path d="M93.3711 46.6847C91.9861 48.0625 86.3558 45.1762 84.9708 46.564C83.5858 47.9519 86.4662 53.5938 85.0912 54.9816C83.7163 56.3695 78.0658 53.4832 76.6909 54.871C75.3159 56.2589 78.1863 61.9008 76.8113 63.2886C75.4363 64.6765 69.796 61.7902 68.411 63.178C67.026 64.5659 69.9064 70.2178 68.5213 71.5956" stroke="black" stroke-width="1.76" stroke-miterlimit="10" stroke-linecap="round"/>
<path d="M25.7656 28.743C27.1506 27.3652 32.781 30.2515 34.166 28.8637C35.551 27.4758 32.6706 21.8339 34.0455 20.446C35.4205 19.0582 41.0709 21.9445 42.4459 20.5567C43.8209 19.1688 40.9505 13.5269 42.3255 12.139C43.7004 10.7512 49.3408 13.6375 50.7258 12.2497C52.1108 10.8618 49.2304 5.20983 50.6154 3.83203" stroke="black" stroke-width="1.76" stroke-miterlimit="10" stroke-linecap="round"/>
</g>
<defs>
<clipPath id="clip0_6585_22840">
<rect width="119" height="76" fill="white"/>
</clipPath>
</defs>
</svg>
