<svg width="119" height="76" viewBox="0 0 119 76" fill="none" xmlns="http://www.w3.org/2000/svg">
<path d="M5.91719 37.3701H3.11719" stroke="#383839" stroke-width="1.76" stroke-linecap="round" stroke-linejoin="round"/>
<path d="M26.8556 37.3701H10.5156" stroke="#383839" stroke-width="1.76" stroke-linecap="round" stroke-linejoin="round"/>
<path d="M79.3453 37.3701H36.9453" stroke="#383839" stroke-width="1.76" stroke-linecap="round" stroke-linejoin="round"/>
<path d="M102.174 37.3701H83.1641" stroke="#383839" stroke-width="1.76" stroke-linecap="round" stroke-linejoin="round"/>
<path d="M115.724 37.3701H107.414" stroke="#383839" stroke-width="1.76" stroke-linecap="round" stroke-linejoin="round"/>
<path d="M33.0781 63.62V11.04" stroke="#383839" stroke-width="1.76" stroke-linecap="round" stroke-linejoin="round"/>
<path d="M33.0781 7.5101V4.1001" stroke="#383839" stroke-width="1.76" stroke-linecap="round" stroke-linejoin="round"/>
<path d="M33.0781 70.6302V67.2202" stroke="#383839" stroke-width="1.76" stroke-linecap="round" stroke-linejoin="round"/>
<path d="M23.4375 60.3099L42.7075 14.4299" stroke="#383839" stroke-width="1.76" stroke-linecap="round" stroke-linejoin="round"/>
<path d="M59.2762 54.6L17.6562 27.22" stroke="#383839" stroke-width="1.76" stroke-linecap="round" stroke-linejoin="round"/>
<path d="M76.5738 65.9899L62.8438 56.95" stroke="#383839" stroke-width="1.76" stroke-linecap="round" stroke-linejoin="round"/>
<path d="M42.4841 60.4001L23.6641 14.3401" stroke="#383839" stroke-width="1.76" stroke-linecap="round" stroke-linejoin="round"/>
<path d="M44.7437 29.3601L17.5938 47.2801" stroke="#383839" stroke-width="1.76" stroke-linecap="round" stroke-linejoin="round"/>
<path d="M70.6459 12.27L56.2959 21.74L50.0859 25.84" stroke="#383839" stroke-width="1.76" stroke-linecap="round" stroke-linejoin="round"/>
<path d="M33.0772 43.5802C36.5069 43.5802 39.2872 40.7998 39.2872 37.3702C39.2872 33.9405 36.5069 31.1602 33.0772 31.1602C29.6475 31.1602 26.8672 33.9405 26.8672 37.3702C26.8672 40.7998 29.6475 43.5802 33.0772 43.5802Z" fill="white" stroke="#383839" stroke-width="1.76" stroke-linecap="round" stroke-linejoin="round"/>
<path d="M5.91719 37.3701H3.11719" stroke="black" stroke-width="1.76" stroke-linecap="round" stroke-linejoin="round"/>
<path d="M26.8556 37.3701H10.5156" stroke="black" stroke-width="1.76" stroke-linecap="round" stroke-linejoin="round"/>
<path d="M79.3453 37.3701H36.9453" stroke="black" stroke-width="1.76" stroke-linecap="round" stroke-linejoin="round"/>
<path d="M102.174 37.3701H83.1641" stroke="black" stroke-width="1.76" stroke-linecap="round" stroke-linejoin="round"/>
<path d="M115.724 37.3701H107.414" stroke="black" stroke-width="1.76" stroke-linecap="round" stroke-linejoin="round"/>
<path d="M33.0781 63.62V11.04" stroke="black" stroke-width="1.76" stroke-linecap="round" stroke-linejoin="round"/>
<path d="M33.0781 7.5101V4.1001" stroke="black" stroke-width="1.76" stroke-linecap="round" stroke-linejoin="round"/>
<path d="M33.0781 70.6302V67.2202" stroke="black" stroke-width="1.76" stroke-linecap="round" stroke-linejoin="round"/>
<path d="M23.4375 60.3099L42.7075 14.4299" stroke="black" stroke-width="1.76" stroke-linecap="round" stroke-linejoin="round"/>
<path d="M59.2762 54.6L17.6562 27.22" stroke="black" stroke-width="1.76" stroke-linecap="round" stroke-linejoin="round"/>
<path d="M76.5738 65.9899L62.8438 56.95" stroke="black" stroke-width="1.76" stroke-linecap="round" stroke-linejoin="round"/>
<path d="M42.4841 60.4001L23.6641 14.3401" stroke="black" stroke-width="1.76" stroke-linecap="round" stroke-linejoin="round"/>
<path d="M44.7437 29.3601L17.5938 47.2801" stroke="black" stroke-width="1.76" stroke-linecap="round" stroke-linejoin="round"/>
<path d="M70.6459 12.27L56.2959 21.74L50.0859 25.84" stroke="black" stroke-width="1.76" stroke-linecap="round" stroke-linejoin="round"/>
<path d="M33.0772 43.5802C36.5069 43.5802 39.2872 40.7998 39.2872 37.3702C39.2872 33.9405 36.5069 31.1602 33.0772 31.1602C29.6475 31.1602 26.8672 33.9405 26.8672 37.3702C26.8672 40.7998 29.6475 43.5802 33.0772 43.5802Z" fill="white" stroke="black" stroke-width="1.76" stroke-linecap="round" stroke-linejoin="round"/>
</svg>
