<svg width="119" height="76" viewBox="0 0 119 76" fill="none" xmlns="http://www.w3.org/2000/svg">
<g clip-path="url(#clip0_6231_18153)">
<path d="M43.4722 34.1301C41.2722 36.0401 39.5522 38.2301 38.3722 40.7101C37.1422 43.2801 36.4922 45.9801 36.4922 48.7801C36.4922 51.5801 37.1322 54.2801 38.3722 56.8501C39.5522 59.3201 41.2722 61.5101 43.4722 63.4301C45.6722 65.3401 48.1922 66.8401 51.0422 67.8601C53.9922 68.9301 57.1022 69.4901 60.3222 69.4901C63.5422 69.4901 66.6522 68.9301 69.6022 67.8601C72.4422 66.8301 74.9722 65.3401 77.1722 63.4301C79.3722 61.5201 81.0922 59.3301 82.2722 56.8501C83.5022 54.2801 84.1522 51.5801 84.1522 48.7801C84.1522 45.9801 83.5122 43.2801 82.2722 40.7101C81.0922 38.2401 79.3722 36.0501 77.1722 34.1301" stroke="black" stroke-width="1.76" stroke-linecap="round"/>
<path d="M73.4922 17.3701C98.7822 23.2301 117.542 44.8501 117.542 70.6301" stroke="black" stroke-width="1.76" stroke-linecap="round" stroke-linejoin="round"/>
<path d="M1.88281 70.6301C1.88281 45.1301 20.2428 23.7001 45.1128 17.5701" stroke="black" stroke-width="1.76" stroke-linecap="round" stroke-linejoin="round"/>
<path d="M44.1362 47.6402C44.6775 47.6402 45.1162 47.2014 45.1162 46.6602C45.1162 46.1189 44.6775 45.6802 44.1362 45.6802C43.595 45.6802 43.1562 46.1189 43.1562 46.6602C43.1562 47.2014 43.595 47.6402 44.1362 47.6402Z" fill="black"/>
<path d="M77.7066 50.95C78.2478 50.95 78.6866 50.5112 78.6866 49.97C78.6866 49.4288 78.2478 48.99 77.7066 48.99C77.1653 48.99 76.7266 49.4288 76.7266 49.97C76.7266 50.5112 77.1653 50.95 77.7066 50.95Z" fill="black"/>
<path d="M57.855 55.68C58.3962 55.68 58.835 55.2412 58.835 54.7C58.835 54.1587 58.3962 53.72 57.855 53.72C57.3138 53.72 56.875 54.1587 56.875 54.7C56.875 55.2412 57.3138 55.68 57.855 55.68Z" fill="black"/>
<path d="M70.1206 47.3101C70.6619 47.3101 71.1006 46.8713 71.1006 46.3301C71.1006 45.7889 70.6619 45.3501 70.1206 45.3501C69.5794 45.3501 69.1406 45.7889 69.1406 46.3301C69.1406 46.8713 69.5794 47.3101 70.1206 47.3101Z" fill="black"/>
<path d="M73.0425 56.6602C73.5837 56.6602 74.0225 56.2214 74.0225 55.6802C74.0225 55.139 73.5837 54.7002 73.0425 54.7002C72.5013 54.7002 72.0625 55.139 72.0625 55.6802C72.0625 56.2214 72.5013 56.6602 73.0425 56.6602Z" fill="black"/>
<path d="M46.0894 53.72C46.6306 53.72 47.0694 53.2813 47.0694 52.74C47.0694 52.1988 46.6306 51.76 46.0894 51.76C45.5481 51.76 45.1094 52.1988 45.1094 52.74C45.1094 53.2813 45.5481 53.72 46.0894 53.72Z" fill="black"/>
<path d="M52.605 49.6001C53.1462 49.6001 53.585 49.1614 53.585 48.6201C53.585 48.0789 53.1462 47.6401 52.605 47.6401C52.0638 47.6401 51.625 48.0789 51.625 48.6201C51.625 49.1614 52.0638 49.6001 52.605 49.6001Z" fill="black"/>
<path d="M50.6519 60.25C51.1931 60.25 51.6319 59.8113 51.6319 59.27C51.6319 58.7288 51.1931 58.29 50.6519 58.29C50.1106 58.29 49.6719 58.7288 49.6719 59.27C49.6719 59.8113 50.1106 60.25 50.6519 60.25Z" fill="black"/>
<path d="M65.9956 60.25C66.5369 60.25 66.9756 59.8113 66.9756 59.27C66.9756 58.7288 66.5369 58.29 65.9956 58.29C65.4544 58.29 65.0156 58.7288 65.0156 59.27C65.0156 59.8113 65.4544 60.25 65.9956 60.25Z" fill="black"/>
<path d="M59.2925 63.8401C59.8337 63.8401 60.2725 63.4014 60.2725 62.8601C60.2725 62.3189 59.8337 61.8801 59.2925 61.8801C58.7513 61.8801 58.3125 62.3189 58.3125 62.8601C58.3125 63.4014 58.7513 63.8401 59.2925 63.8401Z" fill="black"/>
<path d="M65.6506 22.54L60.1406 9.98999" stroke="black" stroke-width="1.42" stroke-linecap="round" stroke-linejoin="round"/>
<path d="M77.7025 49.97L67.0625 25.76" stroke="black" stroke-width="1.42" stroke-linecap="round" stroke-linejoin="round"/>
<path d="M52.6016 48.44L60.1416 9.98999" stroke="black" stroke-width="1.42" stroke-linecap="round" stroke-linejoin="round"/>
<path d="M63.7806 40.53L60.1406 9.98999" stroke="black" stroke-width="1.42" stroke-linecap="round" stroke-linejoin="round"/>
<path d="M65.9934 59.1202L64.2734 44.6602" stroke="black" stroke-width="1.42" stroke-linecap="round" stroke-linejoin="round"/>
<path d="M51.6328 29.49L60.1428 9.98999" stroke="black" stroke-width="1.42" stroke-linecap="round" stroke-linejoin="round"/>
<path d="M46.0938 25.76L60.1437 9.98999" stroke="black" stroke-width="1.42" stroke-linecap="round" stroke-linejoin="round"/>
<path d="M72.0606 23.57L60.1406 9.98999" stroke="black" stroke-width="1.42" stroke-linecap="round" stroke-linejoin="round"/>
<path d="M44.1328 46.6601L50.5728 31.9001" stroke="black" stroke-width="1.42" stroke-linecap="round" stroke-linejoin="round"/>
<path d="M63.9509 3.58008V6.43008C63.9509 8.39008 62.2109 9.99008 60.0809 9.99008C57.9509 9.99008 56.2109 8.39008 56.2109 6.43008V3.58008" stroke="black" stroke-width="1.76" stroke-linecap="round" stroke-linejoin="round"/>
<path d="M79.5353 29.55C85.6053 34.18 89.4353 40.9601 89.4353 48.5201C89.4353 62.47 76.3953 73.77 60.3153 73.77C44.2353 73.77 31.1953 62.46 31.1953 48.5201C31.1953 41.5501 34.4553 35.23 39.7253 30.66" stroke="black" stroke-width="1.76" stroke-linecap="round"/>
</g>
<defs>
<clipPath id="clip0_6231_18153">
<rect width="118.57" height="75.57" fill="white"/>
</clipPath>
</defs>
</svg>
